<?xml version="1.0" encoding="utf-8"?>
<!-- Generator: Adobe Illustrator 26.0.2, SVG Export Plug-In . SVG Version: 6.00 Build 0)  -->
<svg version="1.1" id="Layer_1" xmlns="http://www.w3.org/2000/svg" xmlns:xlink="http://www.w3.org/1999/xlink" x="0px" y="0px"
	 viewBox="0 0 150.4 81.3" style="enable-background:new 0 0 150.4 81.3;" xml:space="preserve">
<style type="text/css">
	.st0{fill:#CF3535;}
	.st1{enable-background:new    ;}
	.st2{fill:#4F4141;}
</style>
<g>
	<g>
		<path class="st0" d="M33.2,80.8c-0.3,0-0.6-0.1-0.8-0.2l-0.5-0.3c-8.5-5.6-15.4-12.5-20.5-20.7c-4.1-6.6-7-13.9-8.7-21.9
			c-2.9-13.5-1.2-23.9-1.1-24.4s0.4-1,0.9-1.1L32.7,0.9c0.3-0.1,0.7-0.1,1,0l30.2,11.2c0.5,0.2,0.9,0.6,0.9,1.1
			c0.1,0.4,1.8,10.9-1.1,24.4C62,45.5,59.1,52.9,55,59.5c-5.1,8.2-12,15.2-20.5,20.7L34,80.6C33.8,80.7,33.5,80.8,33.2,80.8z
			 M4.4,14.6c-0.3,2.7-1.1,11.7,1.2,22.5C7.2,44.7,10,51.7,13.9,58c4.8,7.7,11.3,14.3,19.3,19.6c8-5.3,14.5-11.8,19.3-19.6
			c3.9-6.2,6.7-13.3,8.3-20.9c2.3-10.9,1.5-19.8,1.2-22.5L33.2,3.9l0,0L4.4,14.6z"/>
	</g>
	<g>
		<path class="st0" d="M34.2,70.3c-0.3,0-0.6-0.1-0.8-0.2L33,69.8C15.9,58.7,11,42.7,9.9,31.2c-0.1-0.8,0.5-1.5,1.3-1.6
			s1.6,0.5,1.6,1.3c1.1,10.8,5.7,25.7,21.4,36.1C45,59.9,52,49.7,54.7,36.8c1.7-7.9,1.2-14.3,0.9-16.6l-21.4-8l-22.3,8.3
			c-0.8,0.3-1.6-0.1-1.9-0.9c-0.3-0.8,0.1-1.6,0.9-1.9l22.8-8.5c0.3-0.1,0.7-0.1,1,0l22.8,8.5c0.5,0.2,0.9,0.6,1,1.1
			c0.1,0.3,1.3,8.3-0.8,18.5c-2,9.5-7.5,22.8-22.2,32.4L35,70.1C34.7,70.2,34.5,70.3,34.2,70.3z"/>
	</g>
	<path class="st0" d="M25,27.5h9.2v-2H23.5c-0.1,0-0.1,0-0.2,0c-0.1,0-0.2,0-0.3,0.1c-0.1,0.1-0.1,0.1-0.2,0.2
		c0,0.1-0.1,0.1-0.1,0.2c-0.1,0.1-0.1,0.1-0.1,0.2l-5.4,14.3c-0.1,0.1-0.1,0.1-0.1,0.2c0,0.1,0,0.1,0,0.2c0,4.6,3.3,7,6.5,7
		c3.2,0,6.5-2.4,6.5-7c0-0.1,0-0.1,0-0.2C30,40.6,30,40.6,30,40.5L25,27.5z M23.6,29.4l3.9,10.4h-7.9L23.6,29.4z M23.5,45.8
		c-1.9,0-3.9-1.2-4.3-3.9h8.6C27.4,44.6,25.4,45.8,23.5,45.8z M45.3,29.4l3.9,10.4h-7.9L45.3,29.4z M49.6,41.9
		c-0.2,2.2-2,3.9-4.3,3.9c-2.2,0-4.1-1.7-4.3-3.9C41,41.8,49.6,41.9,49.6,41.9z"/>
	<path class="st0" d="M57,20.2l-22.4-8.3l-0.4-0.1v13.7h0.3h1.1h9.8c0.1,0,0.1,0,0.2,0c0.1,0,0.2,0.1,0.3,0.1c0.1,0,0.2,0.1,0.2,0.2
		c0.1,0.1,0.1,0.1,0.2,0.2c0,0.1,0.1,0.1,0.1,0.2l5.4,14.3c0,0.1,0,0.1,0.1,0.2c0,0.1,0,0.1,0,0.2c0,4.5-3.3,6.9-6.5,6.9
		c-3.2,0-6.5-2.4-6.5-7c0-0.1,0-0.1,0-0.2c0-0.1,0-0.1,0.1-0.2l4.9-12.9h-8.3h-1.1h-0.3v42.4c0.4-0.3,0.4-0.3,0.4-0.3
		C62.2,51.7,57,20.2,57,20.2z"/>
</g>
<g class="st1">
	<path class="st0" d="M77,18.1V7.6h2.3v9.6H84V7.6h2.3v9.6h1.2l0.2,0.2L87.4,21h-1.2L86,20.8c0-0.4,0-0.9-0.1-1.3s-0.1-0.8-0.2-1
		l-0.1-0.3H77V18.1z"/>
	<path class="st0" d="M95.1,16.4l0.3,0.3c0,0-0.1,0.1-0.1,0.2c-0.1,0.1-0.2,0.2-0.3,0.4c-0.2,0.2-0.4,0.3-0.6,0.4s-0.5,0.2-0.9,0.4
		c-0.4,0.1-0.8,0.2-1.2,0.2c-1.2,0-2.1-0.3-2.8-1c-0.7-0.7-1.1-1.6-1.1-2.7s0.4-2,1.1-2.7s1.7-1,3-1c2,0,3,0.8,3,2.3
		c0,0.2,0,0.4,0,0.6c0,0.2-0.1,0.3-0.1,0.4v0.2l-0.2,0.2H91c0,0.9,0.2,1.6,0.6,2s0.9,0.6,1.6,0.6c0.4,0,0.7-0.1,1.1-0.2
		s0.6-0.2,0.7-0.3L95.1,16.4z M92.4,11.5c-0.4,0-0.8,0.2-1.1,0.6c-0.3,0.4-0.4,0.9-0.5,1.6l2.5-0.2c0-0.2,0.1-0.5,0.1-0.7
		C93.4,11.9,93.1,11.5,92.4,11.5z"/>
	<path class="st0" d="M101.8,18.1v-3.2h-2.5v3.2h-2.2v-4.5c0-0.5,0-1-0.1-1.4s-0.1-0.7-0.1-0.9l-0.1-0.2l0.2-0.2h2.3v3h2.5v-0.4
		c0-0.5,0-1,0-1.4s0-0.7-0.1-0.9v-0.3l0.1-0.1h2.2V18L101.8,18.1L101.8,18.1z"/>
	<path class="st0" d="M112.6,12.1l-0.2,0.2c-0.4-0.3-1.1-0.4-2.1-0.4H110v6.3h-2.2v-6.3h-0.3c-0.4,0-0.8,0-1.2,0.1s-0.6,0.1-0.7,0.2
		l-0.2,0.1l-0.2-0.2v-1.2h7.4L112.6,12.1L112.6,12.1z"/>
	<path class="st0" d="M116.1,21.8h-2.2v-6.7c0-0.8,0-1.6-0.1-2.3s-0.1-1.1-0.2-1.4l-0.1-0.4l0.2-0.2c0.4,0,0.8,0,1.2,0
		s0.6-0.1,0.8-0.1h0.3l0.2,0.2l-0.1,0.6l0.1,0.1c0.1-0.1,0.2-0.1,0.3-0.2c0.1-0.1,0.4-0.2,0.8-0.4s0.8-0.2,1.2-0.2
		c0.9,0,1.6,0.3,2.1,1c0.5,0.6,0.8,1.5,0.8,2.6c0,1.2-0.3,2.2-1,2.9c-0.7,0.7-1.6,1-2.7,1c-0.5,0-1-0.1-1.4-0.2v3.7H116.1z
		 M118.8,14.7c0-1.8-0.5-2.7-1.6-2.7c-0.2,0-0.4,0-0.6,0.1s-0.3,0.1-0.4,0.2l-0.1,0.1v4.2c0,0.3,0.1,0.5,0.3,0.6s0.5,0.2,0.8,0.2
		c0.5,0,0.9-0.2,1.1-0.7C118.7,16.3,118.8,15.6,118.8,14.7z"/>
</g>
<g>
	<g>
		<path class="st2" d="M80.5,35.4c0.6,0,1.1-0.2,1.4-0.6s0.5-0.9,0.5-1.6c0-1.4-0.7-2.1-2.1-2.1h-1.1L79.1,31v-0.8h1
			c0.7,0,1.2-0.2,1.5-0.5s0.5-0.9,0.5-1.6c0-1.3-0.5-1.9-1.5-1.9c-0.3,0-0.6,0.1-0.9,0.2c-0.3,0.2-0.5,0.4-0.8,0.6
			c-0.2,0.2-0.4,0.5-0.5,0.7c-0.2,0.2-0.3,0.4-0.3,0.6L78,28.6h-0.3c0,0-0.1,0-0.1-0.1c0,0-0.1-0.1-0.2-0.2s-0.2-0.2-0.3-0.4
			c-0.1-0.1-0.2-0.3-0.2-0.6c-0.1-0.2-0.1-0.5-0.1-0.8l0.1-0.1c0,0,0.2-0.2,0.4-0.3c0.2-0.1,0.4-0.3,0.7-0.4
			c0.3-0.1,0.6-0.2,1.1-0.3c0.5-0.1,1-0.1,1.5-0.1c1.3,0,2.3,0.2,3,0.7s1,1.2,1,2c0,1.3-0.7,2.1-2,2.5c1.7,0.3,2.5,1.2,2.5,2.6
			c0,1-0.4,1.7-1.1,2.2c-0.8,0.5-1.9,0.8-3.3,0.8c-0.6,0-1.1,0-1.6-0.1s-0.9-0.2-1.1-0.3s-0.5-0.2-0.7-0.4c-0.2-0.1-0.3-0.2-0.4-0.3
			l-0.4,0c0-0.4,0.1-0.8,0.2-1.1c0.2-0.3,0.3-0.6,0.5-0.7l0.2-0.2h0.2c0,0.1,0.1,0.2,0.1,0.3s0.2,0.3,0.3,0.6
			c0.2,0.3,0.4,0.5,0.5,0.7s0.5,0.4,0.8,0.6S80.2,35.4,80.5,35.4z"/>
		<path class="st2" d="M89.6,28.8c2.1,0,3.1,0.7,3.1,2.1v3.7c0,0.4,0.2,0.6,0.5,0.6c0.1,0,0.1,0,0.2,0s0.1,0,0.1,0l0,0l0.3,0.3
			c-0.1,0.1-0.1,0.1-0.2,0.2s-0.3,0.2-0.6,0.4s-0.7,0.2-1.1,0.2c-0.8,0-1.3-0.3-1.5-0.9c-0.7,0.6-1.5,0.9-2.5,0.9
			c-0.7,0-1.1-0.2-1.5-0.5s-0.5-0.8-0.5-1.4c0-0.6,0.2-1,0.7-1.4c0.4-0.3,1.3-0.5,2.5-0.7l1.3-0.2v-1.6c0-0.7-0.3-1-1-1
			c-0.4,0-0.6,0.1-0.8,0.3s-0.3,0.5-0.3,0.8c0,0.1,0,0.3,0,0.4s0,0.2,0.1,0.3v0.1l-0.2,0.2c-0.3,0-0.6,0-0.9,0s-0.5-0.1-0.6-0.1
			h-0.2c-0.1-0.2-0.2-0.4-0.2-0.7c0-0.6,0.3-1.1,0.8-1.4C87.8,28.9,88.6,28.8,89.6,28.8z M88.4,34c0,0.7,0.3,1,1,1
			c0.2,0,0.4,0,0.6-0.1s0.3-0.1,0.4-0.2l0.1-0.1v-1.8l-1,0.1c-0.4,0.1-0.7,0.2-0.8,0.3C88.5,33.5,88.4,33.7,88.4,34z"/>
		<path class="st2" d="M95,36.1v-4.5c0-0.5,0-1-0.1-1.4c0-0.4-0.1-0.7-0.1-0.9l-0.1-0.2l0.2-0.2h2.3v6.2h2.1v-3.6c0-0.5,0-1,0-1.4
			s0-0.7-0.1-0.9v-0.3l0.1-0.1h2.2V35h2.1v-3.6c0-0.5,0-1,0-1.4s0-0.7-0.1-0.9v-0.3l0.1-0.1h2.2v6.2h1.1l0.2,0.2l-0.3,3.2h-1.2
			l-0.2-0.2c0-0.4,0-0.8-0.1-1.2s-0.1-0.6-0.2-0.8l-0.1-0.2H95V36.1z"/>
		<path class="st2" d="M110.2,36.1h-1.7v-4.5c0-0.5,0-1-0.1-1.4s-0.1-0.7-0.1-0.9l-0.1-0.2l0.2-0.2h2.3v3.8l-0.1,0.7l0.1,0.1
			l2.9-4.6h1.7v7.2h-2.2v-4l0.1-0.6l-0.1-0.1L110.2,36.1z"/>
		<path class="st2" d="M123.9,30.1l-0.2,0.2c-0.4-0.3-1.1-0.4-2.1-0.4h-0.3v6.3h-2.2v-6.3h-0.3c-0.4,0-0.8,0-1.2,0.1
			s-0.6,0.1-0.7,0.2l-0.2,0.1l-0.2-0.2v-1.2h7.4L123.9,30.1L123.9,30.1z"/>
		<path class="st2" d="M125.2,36.1v-4.5c0-0.5,0-1-0.1-1.4s-0.1-0.7-0.1-0.9l-0.1-0.2l0.2-0.2h2.3v2.9h1.3c0.9,0,1.6,0.2,2.2,0.6
			c0.6,0.4,0.8,0.9,0.8,1.6c0,0.6-0.3,1.2-0.8,1.6c-0.6,0.4-1.3,0.6-2.2,0.6L125.2,36.1L125.2,36.1z M128.3,32.7h-0.9v2.4h0.9
			c0.4,0,0.7-0.1,0.9-0.3s0.3-0.5,0.3-0.9s-0.1-0.7-0.3-0.9S128.7,32.7,128.3,32.7z M132.7,36.1v-4.5c0-0.5,0-1,0-1.4s0-0.7-0.1-0.9
			V29l0.1-0.1h2.2v7.2H132.7z"/>
	</g>
	<g>
		<path class="st0" d="M80.5,35.4c0.6,0,1.1-0.2,1.4-0.6s0.5-0.9,0.5-1.6c0-1.4-0.7-2.1-2.1-2.1h-1.1L79.1,31v-0.8h1
			c0.7,0,1.2-0.2,1.5-0.5s0.5-0.9,0.5-1.6c0-1.3-0.5-1.9-1.5-1.9c-0.3,0-0.6,0.1-0.9,0.2c-0.3,0.2-0.5,0.4-0.8,0.6
			c-0.2,0.2-0.4,0.5-0.5,0.7c-0.2,0.2-0.3,0.4-0.3,0.6L78,28.6h-0.3c0,0-0.1,0-0.1-0.1c0,0-0.1-0.1-0.2-0.2s-0.2-0.2-0.3-0.4
			c-0.1-0.1-0.2-0.3-0.2-0.6c-0.1-0.2-0.1-0.5-0.1-0.8l0.1-0.1c0,0,0.2-0.2,0.4-0.3c0.2-0.1,0.4-0.3,0.7-0.4
			c0.3-0.1,0.6-0.2,1.1-0.3c0.5-0.1,1-0.1,1.5-0.1c1.3,0,2.3,0.2,3,0.7s1,1.2,1,2c0,1.3-0.7,2.1-2,2.5c1.7,0.3,2.5,1.2,2.5,2.6
			c0,1-0.4,1.7-1.1,2.2c-0.8,0.5-1.9,0.8-3.3,0.8c-0.6,0-1.1,0-1.6-0.1s-0.9-0.2-1.1-0.3s-0.5-0.2-0.7-0.4c-0.2-0.1-0.3-0.2-0.4-0.3
			l-0.4,0c0-0.4,0.1-0.8,0.2-1.1c0.2-0.3,0.3-0.6,0.5-0.7l0.2-0.2h0.2c0,0.1,0.1,0.2,0.1,0.3s0.2,0.3,0.3,0.6
			c0.2,0.3,0.4,0.5,0.5,0.7s0.5,0.4,0.8,0.6S80.2,35.4,80.5,35.4z"/>
		<path class="st0" d="M89.6,28.8c2.1,0,3.1,0.7,3.1,2.1v3.7c0,0.4,0.2,0.6,0.5,0.6c0.1,0,0.1,0,0.2,0s0.1,0,0.1,0l0,0l0.3,0.3
			c-0.1,0.1-0.1,0.1-0.2,0.2s-0.3,0.2-0.6,0.4s-0.7,0.2-1.1,0.2c-0.8,0-1.3-0.3-1.5-0.9c-0.7,0.6-1.5,0.9-2.5,0.9
			c-0.7,0-1.1-0.2-1.5-0.5s-0.5-0.8-0.5-1.4c0-0.6,0.2-1,0.7-1.4c0.4-0.3,1.3-0.5,2.5-0.7l1.3-0.2v-1.6c0-0.7-0.3-1-1-1
			c-0.4,0-0.6,0.1-0.8,0.3s-0.3,0.5-0.3,0.8c0,0.1,0,0.3,0,0.4s0,0.2,0.1,0.3v0.1l-0.2,0.2c-0.3,0-0.6,0-0.9,0s-0.5-0.1-0.6-0.1
			h-0.2c-0.1-0.2-0.2-0.4-0.2-0.7c0-0.6,0.3-1.1,0.8-1.4C87.8,28.9,88.6,28.8,89.6,28.8z M88.4,34c0,0.7,0.3,1,1,1
			c0.2,0,0.4,0,0.6-0.1s0.3-0.1,0.4-0.2l0.1-0.1v-1.8l-1,0.1c-0.4,0.1-0.7,0.2-0.8,0.3C88.5,33.5,88.4,33.7,88.4,34z"/>
		<path class="st0" d="M95,36.1v-4.5c0-0.5,0-1-0.1-1.4c0-0.4-0.1-0.7-0.1-0.9l-0.1-0.2l0.2-0.2h2.3v6.2h2.1v-3.6c0-0.5,0-1,0-1.4
			s0-0.7-0.1-0.9v-0.3l0.1-0.1h2.2V35h2.1v-3.6c0-0.5,0-1,0-1.4s0-0.7-0.1-0.9v-0.3l0.1-0.1h2.2v6.2h1.1l0.2,0.2l-0.3,3.2h-1.2
			l-0.2-0.2c0-0.4,0-0.8-0.1-1.2s-0.1-0.6-0.2-0.8l-0.1-0.2H95V36.1z"/>
		<path class="st0" d="M110.2,36.1h-1.7v-4.5c0-0.5,0-1-0.1-1.4s-0.1-0.7-0.1-0.9l-0.1-0.2l0.2-0.2h2.3v3.8l-0.1,0.7l0.1,0.1
			l2.9-4.6h1.7v7.2h-2.2v-4l0.1-0.6l-0.1-0.1L110.2,36.1z"/>
		<path class="st0" d="M123.9,30.1l-0.2,0.2c-0.4-0.3-1.1-0.4-2.1-0.4h-0.3v6.3h-2.2v-6.3h-0.3c-0.4,0-0.8,0-1.2,0.1
			s-0.6,0.1-0.7,0.2l-0.2,0.1l-0.2-0.2v-1.2h7.4L123.9,30.1L123.9,30.1z"/>
		<path class="st0" d="M125.2,36.1v-4.5c0-0.5,0-1-0.1-1.4s-0.1-0.7-0.1-0.9l-0.1-0.2l0.2-0.2h2.3v2.9h1.3c0.9,0,1.6,0.2,2.2,0.6
			c0.6,0.4,0.8,0.9,0.8,1.6c0,0.6-0.3,1.2-0.8,1.6c-0.6,0.4-1.3,0.6-2.2,0.6L125.2,36.1L125.2,36.1z M128.3,32.7h-0.9v2.4h0.9
			c0.4,0,0.7-0.1,0.9-0.3s0.3-0.5,0.3-0.9s-0.1-0.7-0.3-0.9S128.7,32.7,128.3,32.7z M132.7,36.1v-4.5c0-0.5,0-1,0-1.4s0-0.7-0.1-0.9
			V29l0.1-0.1h2.2v7.2H132.7z"/>
	</g>
</g>
<g class="st1">
	<path class="st0" d="M82.2,44.5v9.6h-2.3v-9.6H79c-0.5,0-1,0-1.4,0.1s-0.7,0.2-0.9,0.2L76.4,45l-0.2-0.2v-1.2h9.5v1.2L85.6,45
		c-0.5-0.3-1.3-0.5-2.5-0.5H82.2z"/>
	<path class="st0" d="M87.9,57.8h-2.2v-6.7c0-0.8,0-1.6-0.1-2.3s-0.1-1.1-0.2-1.4L85.3,47l0.2-0.2c0.4,0,0.8,0,1.2,0
		s0.6-0.1,0.8-0.1h0.3l0.2,0.2l-0.1,0.6l0.1,0.1c0.1-0.1,0.1-0.1,0.3-0.2s0.4-0.2,0.8-0.4s0.8-0.2,1.2-0.2c0.9,0,1.6,0.3,2.1,1
		c0.5,0.6,0.8,1.5,0.8,2.6c0,1.2-0.3,2.2-1,2.9s-1.6,1-2.7,1c-0.5,0-1-0.1-1.4-0.2v3.7H87.9z M90.6,50.7c0-1.8-0.5-2.7-1.6-2.7
		c-0.2,0-0.4,0-0.6,0.1s-0.3,0.1-0.4,0.2l-0.1,0.1v4.2c0,0.3,0.1,0.5,0.3,0.6c0.2,0.2,0.5,0.2,0.8,0.2c0.5,0,0.9-0.2,1.1-0.7
		C90.5,52.3,90.6,51.6,90.6,50.7z"/>
	<path class="st0" d="M101,46.9l-3.5,8.2c-0.2,0.5-0.4,0.9-0.6,1.4s-0.3,0.8-0.3,1l-0.1,0.3l-0.1,0.1c-0.3,0-0.6,0-0.9-0.1
		s-0.5-0.2-0.7-0.3l-0.2-0.1v-0.2c0.1-0.1,0.2-0.2,0.4-0.3c0.1-0.1,0.4-0.4,0.8-0.9s0.6-0.9,0.9-1.4l0.2-0.5l-2-4.5
		c-0.2-0.5-0.4-0.9-0.7-1.4s-0.4-0.7-0.5-0.9L93.3,47l0.1-0.1c0.4,0,0.8,0,1.2,0c0.4,0,0.7,0,0.9-0.1h0.3l2,4.9l1-2.1
		c0.2-0.5,0.4-1,0.6-1.4c0.1-0.4,0.2-0.7,0.2-0.9V47l0.1-0.1c0.2,0,0.4,0,0.6,0s0.4,0,0.5-0.1L101,46.9L101,46.9z"/>
	<path class="st0" d="M103,54.1c-0.3,0.5-0.4,1.3-0.4,2.2l-0.2,0.2h-1.2l-0.2-3.2l0.2-0.2h0.8c0.7-0.5,1.1-1.8,1.1-3.9
		c0-0.5,0-0.9-0.1-1.2c0-0.4-0.1-0.6-0.1-0.7l-0.1-0.2l0.2-0.2h5.6v6.2h1.1l0.2,0.2l-0.1,3.2h-1.2l-0.2-0.2c0-0.4,0-0.8-0.1-1.2
		s-0.1-0.6-0.2-0.8l-0.1-0.2C108,54.1,103,54.1,103,54.1z M104.3,49.1c0,1.7-0.3,3.1-0.8,4h2.9v-5.3h-2.1V49.1z"/>
	<path class="st0" d="M111.4,53.2c-0.7-0.7-1.1-1.6-1.1-2.7s0.4-2,1.1-2.7s1.7-1,2.8-1s2.1,0.3,2.8,1s1.1,1.6,1.1,2.7
		s-0.4,2-1.1,2.7s-1.7,1-2.8,1S112.1,53.9,111.4,53.2z M112.8,50.5c0,1,0.1,1.7,0.4,2.2s0.6,0.8,1,0.8s0.8-0.3,1-0.8
		c0.3-0.5,0.4-1.3,0.4-2.2c0-1-0.1-1.7-0.4-2.2s-0.6-0.8-1-0.8s-0.8,0.3-1,0.8C112.9,48.8,112.8,49.5,112.8,50.5z"/>
	<path class="st0" d="M119.7,54.1v-4.5c0-0.5,0-1-0.1-1.4c0-0.4-0.1-0.7-0.1-0.9l-0.1-0.2l0.2-0.2h3.7c0.9,0,1.6,0.2,2.1,0.5
		s0.7,0.8,0.7,1.4c0,0.8-0.4,1.3-1.3,1.6c1.1,0.2,1.7,0.8,1.7,1.8c0,0.6-0.3,1-0.8,1.4c-0.5,0.3-1.3,0.5-2.2,0.5
		C123.5,54.1,119.7,54.1,119.7,54.1z M122.9,47.9H122V50h0.9c0.4,0,0.7-0.1,0.9-0.3c0.2-0.2,0.3-0.4,0.3-0.8s-0.1-0.6-0.3-0.8
		C123.5,48,123.2,47.9,122.9,47.9z M123.1,50.9h-1.2v2.2h1.2c0.4,0,0.7-0.1,0.9-0.3c0.2-0.2,0.3-0.5,0.3-0.8s-0.1-0.6-0.3-0.8
		C123.8,51,123.5,50.9,123.1,50.9z"/>
	<path class="st0" d="M128.1,54.1v-4.5c0-0.5,0-1-0.1-1.4s-0.1-0.7-0.1-0.9l-0.1-0.2l0.2-0.2h2.3v2.9h1.3c0.9,0,1.6,0.2,2.2,0.6
		c0.6,0.4,0.8,0.9,0.8,1.6c0,0.6-0.3,1.2-0.8,1.6c-0.6,0.4-1.3,0.6-2.2,0.6L128.1,54.1L128.1,54.1z M131.2,50.7h-0.9v2.4h0.9
		c0.4,0,0.7-0.1,0.9-0.3s0.3-0.5,0.3-0.9s-0.1-0.7-0.3-0.9S131.6,50.7,131.2,50.7z M135.6,54.1v-4.5c0-0.5,0-1,0-1.4s0-0.7-0.1-0.9
		V47l0.1-0.1h2.2v7.2H135.6z"/>
	<path class="st0" d="M141.8,46.8l1.7,2.5c0.3-0.5,0.6-0.9,0.9-1.3c0.2-0.4,0.4-0.6,0.5-0.8L145,47l0.2-0.1h1.6l-2.6,3.3l0.6,0.9
		c0.3,0.5,0.7,1,1,1.5c0.4,0.5,0.6,0.8,0.8,1l0.3,0.3v0.2c-0.5,0-0.9,0-1.4,0c-0.4,0-0.8,0-1,0.1h-0.3l-1.8-2.7
		c-0.3,0.4-0.6,0.9-0.9,1.3c-0.3,0.4-0.5,0.7-0.6,0.9l-0.2,0.3l-0.1,0.1h-1.3l-0.1-0.1l2.7-3.3l-0.7-1.1c-0.3-0.5-0.7-1-1-1.4
		s-0.5-0.7-0.7-0.9l-0.2-0.3v-0.2c0.5,0,0.9,0,1.4,0s0.8,0,1-0.1L141.8,46.8z"/>
</g>
<g class="st1">
	<path class="st0" d="M84.1,72.1v-9.6h-4.8v9.6H77V61.6h9.4v10.5H84.1z"/>
	<path class="st0" d="M90.9,75.8h-2.2v-6.7c0-0.8,0-1.6-0.1-2.3c-0.1-0.7-0.1-1.1-0.2-1.4L88.3,65l0.2-0.2c0.4,0,0.8,0,1.2,0
		s0.6-0.1,0.8-0.1h0.3l0.2,0.2l-0.1,0.6l0.1,0.1c0.1-0.1,0.2-0.1,0.3-0.2s0.4-0.2,0.8-0.4s0.8-0.2,1.2-0.2c0.9,0,1.6,0.3,2.1,1
		s0.8,1.5,0.8,2.6c0,1.2-0.3,2.2-1,2.9c-0.7,0.7-1.6,1-2.7,1c-0.5,0-1-0.1-1.4-0.2v3.7H90.9z M93.5,68.7c0-1.8-0.5-2.7-1.6-2.7
		c-0.2,0-0.4,0-0.6,0.1s-0.3,0.1-0.4,0.2l-0.1,0.1v4.2c0,0.3,0.1,0.5,0.3,0.6c0.2,0.2,0.5,0.2,0.8,0.2c0.5,0,0.9-0.2,1.1-0.7
		C93.4,70.3,93.5,69.6,93.5,68.7z"/>
	<path class="st0" d="M100.7,64.8c2.1,0,3.1,0.7,3.1,2.1v3.7c0,0.4,0.2,0.6,0.5,0.6c0.1,0,0.1,0,0.2,0s0.1,0,0.1,0l0,0l0.3,0.3
		c-0.1,0.1-0.1,0.1-0.2,0.2s-0.3,0.2-0.6,0.4s-0.7,0.2-1.1,0.2c-0.8,0-1.3-0.3-1.5-0.9c-0.7,0.6-1.5,0.9-2.5,0.9
		c-0.6,0-1.1-0.2-1.5-0.5S97,71,97,70.4s0.2-1,0.7-1.4c0.4-0.3,1.3-0.5,2.5-0.7l1.3-0.2v-1.6c0-0.7-0.3-1-1-1
		c-0.4,0-0.6,0.1-0.8,0.3c-0.2,0.2-0.3,0.5-0.3,0.8c0,0.1,0,0.3,0,0.4s0,0.2,0.1,0.3v0.1l-0.2,0.2c-0.3,0-0.6,0-0.9,0
		s-0.5-0.1-0.6-0.1h-0.2c-0.1-0.2-0.2-0.4-0.2-0.7c0-0.6,0.3-1.1,0.8-1.4C98.9,64.9,99.7,64.8,100.7,64.8z M99.4,70c0,0.7,0.3,1,1,1
		c0.2,0,0.4,0,0.6-0.1s0.3-0.1,0.4-0.2l0.1-0.1v-1.8l-1,0.1c-0.4,0.1-0.7,0.2-0.8,0.3C99.5,69.5,99.4,69.7,99.4,70z"/>
	<path class="st0" d="M106,72.1v-4.5c0-0.5,0-1-0.1-1.4s-0.1-0.7-0.1-0.9l-0.1-0.2l0.2-0.2h3.7c0.9,0,1.6,0.2,2.1,0.5
		s0.7,0.8,0.7,1.4c0,0.8-0.4,1.3-1.3,1.6c1.1,0.2,1.7,0.8,1.7,1.8c0,0.6-0.3,1-0.8,1.4c-0.5,0.3-1.3,0.5-2.2,0.5
		C109.8,72.1,106,72.1,106,72.1z M109.2,65.9h-0.9V68h0.9c0.4,0,0.7-0.1,0.9-0.3c0.2-0.2,0.3-0.4,0.3-0.8s-0.1-0.6-0.3-0.8
		C109.9,66,109.6,65.9,109.2,65.9z M109.4,68.9h-1.2v2.2h1.2c0.4,0,0.7-0.1,0.9-0.3c0.2-0.2,0.3-0.5,0.3-0.8s-0.1-0.6-0.3-0.8
		C110.1,69,109.8,68.9,109.4,68.9z"/>
</g>
</svg>
